<svg xmlns="http://www.w3.org/2000/svg" viewBox="0 0 512 512" width="512" height="512">
  <!-- Background -->
  <rect width="512" height="512" rx="100" fill="#FF9500"/>
  
  <!-- Main Container with shadow -->
  <rect x="80" y="80" width="352" height="352" rx="40" fill="#ffffff" opacity="0.95"/>
  
  <!-- BUYS Text -->
  <text x="256" y="200" font-family="system-ui, -apple-system, sans-serif" font-size="88" font-weight="bold" text-anchor="middle" fill="#FF9500">BUYS</text>
  
  <!-- Shopping bag icon -->
  <g transform="translate(200, 240)">
    <path d="M20 64h72c4.4 0 8 3.6 8 8v104c0 4.4-3.6 8-8 8H20c-4.4 0-8-3.6-8-8V72c0-4.4 3.6-8 8-8z" fill="#FF9500" opacity="0.8"/>
    <path d="M32 64V48c0-13.3 10.7-24 24-24s24 10.7 24 24v16" stroke="#FF9500" stroke-width="6" fill="none" stroke-linecap="round"/>
    <circle cx="40" cy="120" r="4" fill="#ffffff"/>
    <circle cx="72" cy="120" r="4" fill="#ffffff"/>
  </g>
  
  <!-- Store building icon -->
  <g transform="translate(140, 320)">
    <rect x="0" y="20" width="232" height="60" fill="#FF9500" opacity="0.6" rx="8"/>
    <rect x="20" y="0" width="40" height="20" fill="#FF9500" rx="4"/>
    <rect x="80" y="0" width="40" height="20" fill="#FF9500" rx="4"/>
    <rect x="140" y="0" width="40" height="20" fill="#FF9500" rx="4"/>
    <rect x="192" y="0" width="40" height="20" fill="#FF9500" rx="4"/>
  </g>
  
  <!-- Subtitle -->
  <text x="256" y="420" font-family="system-ui, -apple-system, sans-serif" font-size="24" font-weight="500" text-anchor="middle" fill="#666666">Build Up Your Store</text>
</svg>